<?xml version="1.0" encoding="UTF-8"?>
<svg xmlns="http://www.w3.org/2000/svg" viewBox="0 0 156.28 206.68" width="24" height="24">
  <defs>
    <style>
      .cls-1 {
        fill: none;
      }

      .cls-2 {
        fill: #53aca6;
      }

      .cls-3 {
        fill: #7b3a31;
      }

      .cls-4 {
        fill: #2d383d;
      }

      .cls-5 {
        fill: #f3dbbb;
      }

      .cls-6 {
        fill: #cc5971;
      }
    </style>
  </defs>
  <g id="BASE">
    <g>
      <g>
        <g>
          <path class="cls-4" d="M46.44,162.87c2.69,1.55,4.04,3.89,4.04,7.02,0,2.6-.92,4.74-2.76,6.4s-4.11,2.5-6.8,2.5h-13.03v-30.7h12.11c2.63,0,4.85.81,6.65,2.43,1.8,1.62,2.7,3.69,2.7,6.21s-.96,4.59-2.89,6.14ZM39.99,153.75h-6.05v6.75h6.05c.94,0,1.72-.32,2.35-.97.63-.64.94-1.45.94-2.41s-.31-1.77-.92-2.41c-.61-.64-1.4-.96-2.37-.96ZM40.92,173.14c1.02,0,1.87-.34,2.54-1.03.67-.69,1.01-1.56,1.01-2.61s-.34-1.88-1.01-2.57c-.67-.69-1.52-1.03-2.54-1.03h-6.97v7.24h6.97Z"/>
          <path class="cls-4" d="M74.39,178.79l-1.95-5.53h-12.61l-1.84,5.53h-6.54l10.75-30.7h7.5l10.83,30.7h-6.14ZM61.79,167.61h8.64l-4.43-12.54-4.21,12.54Z"/>
          <path class="cls-4" d="M93.11,179.41c-3.04,0-5.6-.68-7.68-2.04-2.08-1.36-3.54-3.21-4.39-5.55l5.18-3.03c1.2,3.13,3.55,4.69,7.06,4.69,1.7,0,2.94-.31,3.73-.92s1.18-1.39,1.18-2.32c0-1.08-.48-1.92-1.45-2.52-.96-.6-2.69-1.25-5.18-1.95-1.37-.41-2.54-.82-3.49-1.23-.95-.41-1.9-.96-2.85-1.64-.95-.69-1.67-1.56-2.17-2.61-.5-1.05-.75-2.28-.75-3.68,0-2.78.99-4.99,2.96-6.65,1.97-1.65,4.35-2.48,7.13-2.48,2.49,0,4.67.61,6.56,1.82,1.89,1.21,3.36,2.9,4.41,5.07l-5.09,2.94c-1.23-2.63-3.19-3.95-5.88-3.95-1.26,0-2.24.29-2.96.86-.72.57-1.07,1.31-1.07,2.22,0,.97.4,1.75,1.21,2.35.8.6,2.35,1.25,4.63,1.95.94.29,1.64.52,2.13.68.48.16,1.14.41,1.97.75.83.34,1.48.65,1.93.94.45.29.97.69,1.56,1.18.58.5,1.03,1.01,1.34,1.54.31.53.57,1.16.79,1.91.22.75.33,1.56.33,2.43,0,2.84-1.03,5.09-3.09,6.75-2.06,1.67-4.74,2.5-8.05,2.5Z"/>
          <path class="cls-4" d="M114.8,173h13.6v5.79h-19.65v-30.7h19.43v5.79h-13.38v6.54h12.28v5.7h-12.28v6.89Z"/>
        </g>
        <g>
          <polygon class="cls-5" points="80.18 54.74 76.1 54.74 27.88 138.25 128.39 138.25 80.18 54.74"/>
          <polygon class="cls-3" points="80.18 54.74 93 32.54 89.94 30.77 79.91 48.14 79.91 27.88 76.37 27.88 76.37 48.14 66.34 30.77 63.28 32.54 76.1 54.74 80.18 54.74"/>
          <polygon class="cls-2" points="106.28 114.1 95.18 133.32 117.38 133.32 106.28 114.1"/>
          <polygon class="cls-2" points="50 114.1 38.9 133.32 61.1 133.32 50 114.1"/>
          <polygon class="cls-6" points="78.13 114.1 67.03 133.32 89.23 133.32 78.13 114.1"/>
        </g>
      </g>
      <rect class="cls-1" width="156.28" height="206.68"/>
    </g>
  </g>
</svg>