<?xml version="1.0" encoding="UTF-8"?>
<svg id="_レイヤー_1" data-name="レイヤー 1" xmlns="http://www.w3.org/2000/svg" viewBox="0 0 156.28 156.28" width="24" height="24">

  <defs>
    <style>
      .cls-1 {
        fill: none;
      }

      .cls-2 {
        fill: #cb5971;
      }

      .cls-3 {
        fill: #f2daba;
      }

      .cls-4 {
        fill: #7c3a31;
      }

      .cls-5 {
        fill: #52aba5;
      }

      .cls-6 {
        fill: #2d383d;
      }
    </style>
  </defs>
  <g>
    <g>
      <path class="cls-6" d="M5.05,17.72c.29.17.44.42.44.76,0,.28-.1.52-.3.7s-.45.27-.74.27h-1.42v-3.34h1.32c.29,0,.53.09.72.26s.29.4.29.68-.1.5-.31.67ZM4.35,16.72h-.66v.73h.66c.1,0,.19-.03.26-.1.07-.07.1-.16.1-.26s-.03-.19-.1-.26c-.07-.07-.15-.1-.26-.1ZM4.45,18.83c.11,0,.2-.04.28-.11.07-.07.11-.17.11-.28s-.04-.2-.11-.28c-.07-.07-.17-.11-.28-.11h-.76v.79h.76Z"/>
      <path class="cls-6" d="M8.09,19.45l-.21-.6h-1.37l-.2.6h-.71l1.17-3.34h.82l1.18,3.34h-.67ZM6.72,18.23h.94l-.48-1.36-.46,1.36Z"/>
      <path class="cls-6" d="M10.13,19.52c-.33,0-.61-.07-.83-.22-.23-.15-.38-.35-.48-.6l.56-.33c.13.34.39.51.77.51.18,0,.32-.03.41-.1s.13-.15.13-.25c0-.12-.05-.21-.16-.27-.1-.07-.29-.14-.56-.21-.15-.04-.28-.09-.38-.13-.1-.04-.21-.1-.31-.18-.1-.07-.18-.17-.24-.28-.05-.11-.08-.25-.08-.4,0-.3.11-.54.32-.72.21-.18.47-.27.78-.27.27,0,.51.07.71.2.21.13.37.32.48.55l-.55.32c-.13-.29-.35-.43-.64-.43-.14,0-.24.03-.32.09-.08.06-.12.14-.12.24,0,.1.04.19.13.26.09.07.26.14.5.21.1.03.18.06.23.07.05.02.12.04.21.08.09.04.16.07.21.1.05.03.11.07.17.13.06.05.11.11.15.17.03.06.06.13.09.21.02.08.04.17.04.26,0,.31-.11.55-.34.73-.22.18-.52.27-.88.27Z"/>
      <path class="cls-6" d="M12.49,18.82h1.48v.63h-2.14v-3.34h2.11v.63h-1.46v.71h1.34v.62h-1.34v.75Z"/>
    </g>
    <g>
      <polygon class="cls-3" points="8.72 5.95 8.28 5.95 3.03 15.04 13.97 15.04 8.72 5.95"/>
      <polygon class="cls-4" points="8.72 5.95 10.12 3.54 9.78 3.35 8.69 5.24 8.69 3.03 8.31 3.03 8.31 5.24 7.22 3.35 6.88 3.54 8.28 5.95 8.72 5.95"/>
      <polygon class="cls-5" points="11.56 12.41 10.35 14.5 12.77 14.5 11.56 12.41"/>
      <polygon class="cls-5" points="5.44 12.41 4.23 14.5 6.65 14.5 5.44 12.41"/>
      <polygon class="cls-2" points="8.5 12.41 7.29 14.5 9.71 14.5 8.5 12.41"/>
    </g>
  </g>
  <rect class="cls-1" width="17" height="22.48"/>
</svg>